<svg width="16" height="16" viewBox="0 0 16 16" fill="none" xmlns="http://www.w3.org/2000/svg">
<path d="M16 6.43502V1.8426C16 0.971662 15.294 0.265625 14.423 0.265625H9.59937V6.43502H16Z" fill="url(#paint0_linear_1371_39143)"/>
<path d="M9.59937 6.43502V0.265625H7.6169C6.79487 0.265625 6.00533 0.58656 5.41643 1.16007L0.413194 6.03258C0.262473 6.17937 0.366392 6.43502 0.576777 6.43502H9.59937Z" fill="url(#paint1_linear_1371_39143)"/>
<path d="M9.59937 6.43506H16V8.2782C16 9.14044 15.647 9.9651 15.0231 10.5603L9.99567 15.3563C9.84645 15.4987 9.59937 15.3929 9.59937 15.1867V6.43506Z" fill="url(#paint2_linear_1371_39143)"/>
<defs>
<linearGradient id="paint0_linear_1371_39143" x1="17.7779" y1="-1.48769" x2="5.78727" y2="10.2774" gradientUnits="userSpaceOnUse">
<stop offset="0.167296" stop-color="#9D66F3"/>
<stop offset="0.69456" stop-color="#4A01A3"/>
</linearGradient>
<linearGradient id="paint1_linear_1371_39143" x1="12.0572" y1="-1.01043" x2="0.321525" y2="9.25088" gradientUnits="userSpaceOnUse">
<stop stop-color="#FF00B8"/>
<stop offset="0.848958" stop-color="#FFC700"/>
</linearGradient>
<linearGradient id="paint2_linear_1371_39143" x1="17.6493" y1="3.27221" x2="7.52233" y2="16.0998" gradientUnits="userSpaceOnUse">
<stop stop-color="#FF00B8"/>
<stop offset="0.848958" stop-color="#FFC700"/>
</linearGradient>
</defs>
</svg>
